# xmcd CD database file
#
# Track frame offsets:
#	150
#	25000
#	38097
#	48138
#	63134
#	92892
#	136356
#	165584
#	177864
#	189226
#	202482
#	216600
#	225915
#	238941
#	261065
#	277809
#	283220
#	314118
#	332159
#
# Disc length: 4689 seconds
#
# Revision: 2
# Processed by: cddbd v1.5.2PL0 Copyright (c) Steve Scherf et al.
# Submitted via: CD2WAV32(JP) R3.22
#
DISCID=1a124f13
DTITLE=クラシック - クラシック ベスト 103 オン・ムービー 5
DYEAR=2006
DGENRE=Classical
TTITLE0=ワーグナー：ワルキューレの騎行
TTITLE1=オッフェンバック：歌劇「ホフマン物語」より「ホフマンの舟歌」
TTITLE2=オッフェンバック：歌劇「天国と地獄」より「カンカン」
TTITLE3=ブルックナー：アヴェ マリア
TTITLE4=スメタナ：連作交響詩「我が祖国」より第2曲「モルダウ」
TTITLE5=ヨハン・シュトラウス二世：ワルツ「芸術家の生涯」
TTITLE6=ヨハン・シュトラウス二世：ワルツ「春の声」
TTITLE7=ヨハン・シュトラウス二世：トリッチ・トラッチ・ポルカ
TTITLE8=ボロディン：弦楽四重奏曲第2番より第3楽章
TTITLE9=ブラームス：ハンガリー舞曲第5番
TTITLE10=サン=サーンス：組曲「動物の謝肉祭」より第13曲「白鳥」
TTITLE11=ビゼー：「カルメン」組曲より「ハバネラ」
TTITLE12=ムソルグスキー：「展覧会の絵」より「小人」
TTITLE13=チャイコフスキー：「白鳥の湖」より「フィナーレ」
TTITLE14=チャイコフスキー：ピアノ協奏曲第1番より第1楽章(抜粋)
TTITLE15=チャイコフスキー：「くるみ割り人形」より「ロシア舞曲／トレパーク」
TTITLE16=チャイコフスキー：「くるみ割り人形」より「花のワルツ」
TTITLE17=チャイコフスキー：幻想序曲「ロメオとジュリエット」より「愛のテーマ」
TTITLE18=グリーグ：「ペール・ギュント」組曲第1番より「朝」
EXTD=
EXTT0=
EXTT1=
EXTT2=
EXTT3=
EXTT4=
EXTT5=
EXTT6=
EXTT7=
EXTT8=
EXTT9=
EXTT10=
EXTT11=
EXTT12=
EXTT13=
EXTT14=
EXTT15=
EXTT16=
EXTT17=
EXTT18=
PLAYORDER=
